<?xml version="1.0" standalone="no"?>
<!DOCTYPE svg PUBLIC "-//W3C//DTD SVG 20010904//EN"
 "http://www.w3.org/TR/2001/REC-SVG-20010904/DTD/svg10.dtd">
<svg version="1.0" xmlns="http://www.w3.org/2000/svg"
 width="512.000000pt" height="512.000000pt" viewBox="0 0 512.000000 512.000000"
 preserveAspectRatio="xMidYMid meet">

<g transform="translate(0.000000,512.000000) scale(0.100000,-0.100000)"
fill="#000000" stroke="none">
<path d="M2370 5114 c-360 -34 -658 -118 -962 -270 -236 -118 -428 -256 -627
-449 -226 -221 -379 -429 -512 -700 -127 -260 -198 -483 -241 -760 -31 -202
-31 -561 0 -754 75 -459 260 -882 537 -1224 71 -88 107 -114 147 -103 13 3
195 178 406 388 305 306 382 389 382 409 0 15 -16 47 -36 73 -71 93 -69 75
-72 547 -3 425 -3 427 -25 446 -12 11 -37 25 -55 31 -44 15 -99 -6 -107 -40
-3 -13 -6 -233 -8 -490 l-2 -466 -24 -26 c-34 -36 -88 -36 -122 0 l-24 26 -5
551 c-3 304 -8 557 -13 564 -4 6 -42 25 -85 43 -112 46 -141 85 -108 148 11
22 42 39 148 83 1518 639 1473 620 1557 650 l53 19 369 -155 c219 -92 383
-155 402 -155 29 0 75 42 480 448 469 469 465 464 434 519 -17 30 -171 152
-287 229 -316 207 -649 335 -1025 394 -126 20 -464 34 -575 24z"/>
<path d="M4002 3878 c-217 -216 -398 -403 -402 -415 -15 -36 7 -81 49 -102 20
-10 169 -74 331 -141 162 -68 305 -132 316 -144 32 -31 36 -57 16 -95 -16 -32
-35 -41 -282 -143 -146 -60 -272 -115 -280 -124 -13 -12 -16 -80 -20 -442 l-5
-427 -28 -57 c-34 -68 -89 -119 -212 -196 -517 -320 -1119 -355 -1670 -98 -54
25 -110 46 -124 46 -20 0 -107 -81 -429 -402 -221 -222 -405 -413 -408 -426
-11 -40 15 -77 106 -149 373 -298 807 -481 1290 -545 125 -16 509 -16 630 1
455 62 860 228 1227 502 125 94 397 366 490 489 273 366 439 772 505 1235 16
116 16 501 0 625 -64 481 -250 923 -541 1285 -39 49 -82 95 -94 102 -54 30
-53 32 -465 -379z"/>
<path d="M1913 3356 c-342 -144 -631 -270 -642 -280 -29 -27 -28 -86 2 -113
22 -22 1026 -439 1080 -450 27 -5 53 19 418 383 368 367 389 391 389 425 0 24
-7 42 -22 56 -29 26 -548 243 -580 242 -13 0 -303 -119 -645 -263z"/>
<path d="M3022 2897 c-199 -199 -362 -367 -362 -373 0 -11 32 -44 43 -44 3 0
259 104 569 231 391 160 570 238 586 255 38 43 26 101 -27 129 -79 41 -394
165 -418 165 -24 0 -87 -58 -391 -363z"/>
<path d="M1597 2588 c-9 -7 -21 -26 -27 -41 -11 -31 -15 -602 -4 -656 9 -43
50 -81 87 -81 27 0 63 31 274 243 134 133 246 252 250 265 9 36 -15 79 -54 97
-116 56 -451 185 -478 185 -17 0 -39 -6 -48 -12z"/>
<path d="M3265 2524 c-429 -179 -672 -275 -700 -276 -16 -1 -51 7 -76 17 -26
10 -56 15 -70 12 -13 -4 -141 -123 -286 -270 -226 -226 -263 -267 -263 -293 0
-46 24 -69 103 -102 339 -142 728 -155 1083 -37 188 62 453 217 486 285 16 31
18 70 18 357 l0 321 -26 31 c-19 23 -34 31 -57 30 -18 0 -113 -34 -212 -75z"/>
</g>
</svg>
